<?xml version="1.0" encoding="UTF-8"?>
<!DOCTYPE svg PUBLIC "-//W3C//DTD SVG 1.1//EN" "http://www.w3.org/Graphics/SVG/1.1/DTD/svg11.dtd">
<svg xmlns="http://www.w3.org/2000/svg" version="1.1" width="45px" height="45px" style="shape-rendering:geometricPrecision; text-rendering:geometricPrecision; image-rendering:optimizeQuality; fill-rule:evenodd; clip-rule:evenodd" xmlns:xlink="http://www.w3.org/1999/xlink">
<g><path style="opacity:0.986" fill="#050505" d="M 3.5,-0.5 C 15.8333,-0.5 28.1667,-0.5 40.5,-0.5C 41.2905,0.40128 42.2905,1.06795 43.5,1.5C 43.3284,2.49162 43.6618,3.15829 44.5,3.5C 44.5,15.8333 44.5,28.1667 44.5,40.5C 43.6618,40.8417 43.3284,41.5084 43.5,42.5C 42.8333,42.5 42.5,42.8333 42.5,43.5C 41.5084,43.3284 40.8417,43.6618 40.5,44.5C 28.1667,44.5 15.8333,44.5 3.5,44.5C 3.15829,43.6618 2.49162,43.3284 1.5,43.5C 1.06795,42.2905 0.40128,41.2905 -0.5,40.5C -0.5,28.1667 -0.5,15.8333 -0.5,3.5C 0.5,1.83333 1.83333,0.5 3.5,-0.5 Z"/></g>
<g><path style="opacity:0.008" fill="#000000" d="M 44.5,0.5 C 44.5,0.833333 44.5,1.16667 44.5,1.5C 43.8299,1.01865 43.8299,0.68532 44.5,0.5 Z"/></g>
<g><path style="opacity:1" fill="#f2f2f2" d="M 28.5,5.5 C 31.2469,5.18665 33.9135,5.51998 36.5,6.5C 33.4359,16.1924 30.2693,25.859 27,35.5C 25.6472,36.7042 23.9806,37.3708 22,37.5C 20.5,37.1667 19,36.8333 17.5,36.5C 14.1667,26.8333 10.8333,17.1667 7.5,7.5C 10.1667,6.16667 12.8333,6.16667 15.5,7.5C 17.9634,14.0572 20.1301,20.7238 22,27.5C 24.2745,20.1787 26.4411,12.8453 28.5,5.5 Z"/></g>
<g><path style="opacity:0.008" fill="#000000" d="M 43.5,42.5 C 43.8333,42.5 44.1667,42.5 44.5,42.5C 44.5,42.8333 44.5,43.1667 44.5,43.5C 44.1667,43.1667 43.8333,42.8333 43.5,42.5 Z"/></g>
<g><path style="opacity:0.008" fill="#000000" d="M 1.5,43.5 C 1.5,43.8333 1.5,44.1667 1.5,44.5C 0.829857,44.0187 0.829857,43.6853 1.5,43.5 Z"/></g>
<g><path style="opacity:0.008" fill="#000000" d="M 42.5,43.5 C 42.8333,43.5 43.1667,43.5 43.5,43.5C 43.5,43.8333 43.5,44.1667 43.5,44.5C 43.1667,44.1667 42.8333,43.8333 42.5,43.5 Z"/></g>
</svg>
